<?xml version="1.0" encoding="utf-8" standalone="no"?>
<!DOCTYPE svg PUBLIC "-//W3C//DTD SVG 1.1//EN"
  "http://www.w3.org/Graphics/SVG/1.1/DTD/svg11.dtd">
<svg xmlns:xlink="http://www.w3.org/1999/xlink" width="236.16pt" height="236.16pt" viewBox="0 0 236.16 236.16" xmlns="http://www.w3.org/2000/svg" version="1.1">
 <metadata>
  <rdf:RDF xmlns:dc="http://purl.org/dc/elements/1.1/" xmlns:cc="http://creativecommons.org/ns#" xmlns:rdf="http://www.w3.org/1999/02/22-rdf-syntax-ns#">
   <cc:Work>
    <dc:type rdf:resource="http://purl.org/dc/dcmitype/StillImage"/>
    <dc:date>2026-03-01T12:10:05.743872</dc:date>
    <dc:format>image/svg+xml</dc:format>
    <dc:creator>
     <cc:Agent>
      <dc:title>Matplotlib v3.10.8, https://matplotlib.org/</dc:title>
     </cc:Agent>
    </dc:creator>
   </cc:Work>
  </rdf:RDF>
 </metadata>
 <defs>
  <style type="text/css">*{stroke-linejoin: round; stroke-linecap: butt}</style>
 </defs>
 <g id="figure_1">
  <g id="patch_1">
   <path d="M 0 236.16 
L 236.16 236.16 
L 236.16 0 
L 0 0 
z
" style="fill: #ffffff"/>
  </g>
  <g id="axes_1">
   <g id="patch_2">
    <path d="M 118.08 210.48 
C 142.584766 210.48 166.08918 200.744153 183.416667 183.416667 
C 200.744153 166.08918 210.48 142.584766 210.48 118.08 
C 210.48 93.575234 200.744153 70.07082 183.416667 52.743333 
C 166.08918 35.415847 142.584766 25.68 118.08 25.68 
C 93.575234 25.68 70.07082 35.415847 52.743333 52.743333 
C 35.415847 70.07082 25.68 93.575234 25.68 118.08 
C 25.68 142.584766 35.415847 166.08918 52.743333 183.416667 
C 70.07082 200.744153 93.575234 210.48 118.08 210.48 
L 118.08 210.48 
z
" clip-path="url(#p57d7c0b9ef)" style="fill: none; stroke: #999999; stroke-width: 3; stroke-linejoin: miter"/>
   </g>
   <g id="line2d_1">
    <path d="M 118.08 118.08 
L 118.08 25.68 
" clip-path="url(#p57d7c0b9ef)" style="fill: none; stroke: #222222; stroke-width: 2.5; stroke-linecap: square"/>
   </g>
   <g id="line2d_2">
    <path d="M 118.08 118.08 
L 38.059253 164.28 
" clip-path="url(#p57d7c0b9ef)" style="fill: none; stroke: #222222; stroke-width: 2.5; stroke-linecap: square"/>
   </g>
   <g id="line2d_3">
    <path d="M 118.08 118.08 
L 198.100747 164.28 
" clip-path="url(#p57d7c0b9ef)" style="fill: none; stroke: #222222; stroke-width: 2.5; stroke-linecap: square"/>
   </g>
   <g id="line2d_4">
    <path d="M 38.059253 164.28 
L 118.08 25.68 
" clip-path="url(#p57d7c0b9ef)" style="fill: none; stroke: #222222; stroke-width: 2.5; stroke-linecap: square"/>
   </g>
   <g id="line2d_5">
    <path d="M 38.059253 164.28 
L 198.100747 164.28 
" clip-path="url(#p57d7c0b9ef)" style="fill: none; stroke: #222222; stroke-width: 2.5; stroke-linecap: square"/>
   </g>
   <g id="line2d_6">
    <path d="M 197.194523 125.750374 
L 150.994523 45.729626 
" clip-path="url(#p57d7c0b9ef)" style="fill: none; stroke: #007fff; stroke-width: 3; stroke-linecap: square"/>
   </g>
   <g id="line2d_7">
    <path d="M 164.525799 124.606484 
L 135.650799 74.593516 
" clip-path="url(#p57d7c0b9ef)" style="fill: none; stroke: #00aa00; stroke-width: 3; stroke-linecap: square"/>
   </g>
  </g>
 </g>
 <defs>
  <clipPath id="p57d7c0b9ef">
   <rect x="7.2" y="7.2" width="221.76" height="221.76"/>
  </clipPath>
 </defs>
</svg>
